<?xml version="1.0" standalone="no"?>
<!DOCTYPE svg PUBLIC "-//W3C//DTD SVG 20010904//EN"
 "http://www.w3.org/TR/2001/REC-SVG-20010904/DTD/svg10.dtd">
<svg version="1.0" xmlns="http://www.w3.org/2000/svg"
 width="460.000000pt" height="460.000000pt" viewBox="0 0 460.000000 460.000000"
 preserveAspectRatio="xMidYMid meet">
<metadata>
Created by potrace 1.11, written by Peter Selinger 2001-2013
</metadata>
<g transform="translate(0.000000,460.000000) scale(0.100000,-0.100000)"
fill="#000000" stroke="none">
<path d="M1961 4514 c-82 -22 -150 -63 -218 -131 l-62 -63 -705 0 -706 0 0
-609 0 -608 -39 -26 c-199 -132 -267 -392 -161 -612 26 -54 103 -140 159 -180
l41 -28 0 -988 0 -989 240 0 c147 0 240 -4 240 -10 0 -5 28 -39 61 -75 111
-118 268 -173 421 -147 127 22 245 95 312 191 l29 41 1373 0 1374 0 0 2020 0
2020 -914 0 -914 0 -68 68 c-72 70 -131 105 -217 128 -66 18 -177 17 -246 -2z
m-351 -487 c0 -157 117 -329 275 -403 l75 -36 -2 -241 -3 -241 -50 -12 c-119
-31 -253 -119 -338 -225 l-41 -49 -286 0 -286 0 -13 38 c-50 139 -198 263
-352 293 l-59 12 0 453 0 454 540 0 540 0 0 -43z m2455 -1727 l0 -1765 -1212
-3 -1211 -2 -6 27 c-2 16 -8 46 -11 68 -23 140 -168 299 -317 349 -17 5 -18
39 -18 516 l0 510 146 0 146 0 60 -54 c62 -57 182 -125 253 -145 229 -64 471
-8 650 152 l53 47 216 0 216 0 0 -193 0 -192 -50 -18 c-169 -60 -300 -253
-300 -441 1 -136 39 -232 132 -332 316 -337 883 -62 818 397 -22 155 -133 303
-273 364 l-67 29 0 323 0 323 -275 0 -275 0 7 43 c5 23 8 94 8 157 0 134 -22
216 -86 326 l-39 66 0 119 0 119 198 0 197 0 18 -49 c25 -70 96 -162 162 -210
291 -208 702 -36 756 317 56 374 -337 663 -680 500 -91 -43 -187 -140 -226
-230 l-30 -67 -327 -1 -328 0 0 -146 c0 -135 -1 -146 -17 -139 -10 4 -43 15
-73 25 l-55 18 -3 239 -2 240 74 36 c146 73 246 210 268 371 l11 76 746 -2
746 -3 0 -1765z m-2643 128 c3 -73 8 -141 13 -150 7 -17 -6 -18 -199 -18
l-206 0 0 -638 0 -638 -65 -28 c-141 -61 -265 -223 -281 -366 l-7 -60 -73 0
-74 0 2 837 3 838 48 7 c27 3 82 23 124 42 99 47 170 120 220 226 l38 79 226
1 227 0 4 -132z"/>
</g>
</svg>
